<?xml version="1.0" encoding="iso-8859-1"?>
<!-- Generator: Adobe Illustrator 18.0.0, SVG Export Plug-In . SVG Version: 6.00 Build 0)  -->
<!DOCTYPE svg PUBLIC "-//W3C//DTD SVG 1.1//EN" "http://www.w3.org/Graphics/SVG/1.1/DTD/svg11.dtd">
<svg version="1.1" id="Capa_1" xmlns="http://www.w3.org/2000/svg" xmlns:xlink="http://www.w3.org/1999/xlink" x="0px" y="0px"
	 viewBox="0 0 416.198 416.198" style="enable-background:new 0 0 416.198 416.198;" xml:space="preserve">
<g>
	<g>
		<path style="fill:#C93F3F;" d="M213.019,285.033l20.799,48.902c1.923,4.521,8.324,4.543,10.278,0.035l21.385-49.344
			l-25.898-42.719L213.019,285.033z"/>
		<path style="fill:#C93F3F;" d="M150.717,285.033l20.799,48.902c1.923,4.521,8.324,4.543,10.278,0.035l21.385-49.344
			l-25.898-42.719L150.717,285.033z"/>
	</g>
	<path style="fill:#E24747;" d="M30.546,191.785l62.208,62.208c23.176,23.176,51.591,37.913,81.432,44.223
		c12.3,2.601,21.512,12.826,22.499,25.359c0.008,0.101,0.016,0.202,0.024,0.303c0.003-0.113-0.001,0.319,0.007-0.241l0.002,0.047
		l0.005,0.094l0.01,0.189l0.02,0.38l0.041,0.766c0.027,0.513,0.055,1.031,0.083,1.555c0.028,0.523,0.056,1.051,0.084,1.584
		c0.007,0.445,0.014,0.894,0.021,1.347c0.015,0.899,0.031,1.814,0.047,2.743c-0.038,0.993-0.077,2.001-0.116,3.023
		c-0.233,4.087-0.719,8.423-1.672,12.854c-1.908,8.846-5.475,18.125-10.744,26.596c-5.26,8.466-12.147,16.061-19.656,22.058
		c-3.753,3.004-7.679,5.562-11.552,7.769c-3.866,2.235-7.752,3.955-11.409,5.41c-1.84,0.693-3.612,1.367-5.34,1.875
		c-0.861,0.265-1.695,0.555-2.52,0.781c-0.828,0.217-1.633,0.428-2.412,0.633c-1.557,0.442-3.043,0.722-4.416,1.012
		c-0.687,0.139-1.346,0.292-1.98,0.402c-0.636,0.099-1.243,0.194-1.819,0.284c-1.154,0.169-2.185,0.367-3.089,0.457
		c-0.905,0.095-1.675,0.175-2.299,0.24c-1.253,0.131-1.921,0.2-1.921,0.2s0.67,0.036,1.927,0.103
		c0.63,0.033,1.408,0.075,2.323,0.123c0.916,0.053,1.967,0.019,3.15,0.033c0.592,0.001,1.216,0.002,1.87,0.004
		c0.654-0.01,1.336-0.058,2.05-0.088c1.427-0.072,2.981-0.118,4.626-0.315c0.827-0.082,1.68-0.167,2.558-0.255
		c0.878-0.098,1.772-0.257,2.697-0.389c1.858-0.242,3.782-0.642,5.802-1.059c4.015-0.902,8.369-2.058,12.825-3.766
		c4.463-1.68,9.101-3.75,13.681-6.356c9.157-5.196,18.173-12.371,25.727-21.089c7.558-8.708,13.553-18.92,17.566-29.253
		c2.008-5.169,3.468-10.37,4.563-15.384c0.251-1.261,0.498-2.504,0.742-3.729c0.189-1.3,0.375-2.58,0.558-3.839
		c0.085-0.627,0.169-1.248,0.252-1.864c0.055-0.531,0.11-1.057,0.165-1.578s0.108-1.037,0.161-1.548l0.08-0.763l0.039-0.379
		l0.02-0.188l0.01-0.094l0.005-0.047c0.009-0.592,0.005-0.191,0.007-0.335c0.008-0.101,0.016-0.202,0.024-0.303
		c0.987-12.533,10.199-22.758,22.499-25.359c29.842-6.31,58.257-21.047,81.432-44.223l62.208-62.208
		c6.553-6.553,6.553-17.177,0-23.729L224.312,6.716c-8.954-8.954-23.471-8.954-32.426,0L30.546,168.056
		C23.993,174.609,23.993,185.233,30.546,191.785z"/>
	<path style="fill:#F74B4B;" d="M208.097,294.801c-7.109-9.034-17.336-15.567-29.36-18.11
		c-26.691-5.644-51.044-18.872-70.427-38.255l-58.516-58.516L207.442,22.272c0.082-0.081,0.272-0.271,0.657-0.271
		s0.575,0.19,0.657,0.271l157.648,157.649l-58.516,58.516c-19.383,19.383-43.736,32.611-70.427,38.255
		C225.434,279.235,215.205,285.77,208.097,294.801z"/>
	<g>
		<g>
			<circle style="fill:#FFFFFF;" cx="235.902" cy="62.165" r="13.207"/>
			<circle style="fill:#4D4D4D;" cx="235.902" cy="62.165" r="8.08"/>
		</g>
		<g>
			<circle style="fill:#FFFFFF;" cx="180.295" cy="62.165" r="13.207"/>
			<circle style="fill:#4D4D4D;" cx="180.295" cy="62.165" r="8.08"/>
		</g>
	</g>
	<path style="fill:#4D4D4D;" d="M189.432,96.587c0-10.309,8.357-18.667,18.667-18.667c10.309,0,18.667,8.357,18.667,18.667"/>
	<path style="fill:#E24747;" d="M208.099,139.031c0,0,0.7,1.608,1.599,4.421c0.908,2.814,2.024,6.833,3.016,11.657
		c0.992,4.823,1.88,10.451,2.472,16.48c0.606,6.029,0.897,12.461,0.912,18.892c-0.003,6.431-0.29,12.863-0.892,18.892
		c-0.296,3.015-0.66,5.929-1.078,8.692c-0.409,2.763-0.91,5.376-1.392,7.788c-0.506,2.412-1.026,4.623-1.545,6.582
		c-0.522,1.96-1.023,3.668-1.484,5.075c-0.903,2.814-1.608,4.422-1.608,4.422s-0.705-1.608-1.608-4.422
		c-0.46-1.407-0.962-3.115-1.484-5.075c-0.519-1.959-1.039-4.17-1.545-6.582c-0.482-2.412-0.983-5.024-1.392-7.788
		c-0.418-2.763-0.782-5.678-1.078-8.692c-0.602-6.029-0.889-12.461-0.892-18.892c0.015-6.431,0.306-12.863,0.912-18.892
		c0.592-6.029,1.48-11.657,2.472-16.48c0.993-4.823,2.108-8.843,3.016-11.657C207.398,140.639,208.099,139.031,208.099,139.031z"/>
	<g>
		<path style="fill:#E24747;" d="M185.32,145.503c0,0-1.31,0.571-3.602,1.302c-2.292,0.74-5.567,1.649-9.497,2.457
			c-3.93,0.809-8.514,1.532-13.427,2.014c-4.912,0.494-10.152,0.731-15.391,0.743c-5.24-0.003-10.479-0.237-15.392-0.727
			c-2.456-0.241-4.83-0.538-7.082-0.878c-2.251-0.333-4.38-0.741-6.345-1.134c-1.965-0.412-3.766-0.836-5.362-1.259
			c-1.597-0.425-2.988-0.834-4.134-1.209c-2.292-0.736-3.602-1.31-3.602-1.31s1.31-0.574,3.602-1.31
			c1.146-0.375,2.538-0.783,4.134-1.209c1.596-0.423,3.397-0.847,5.362-1.259c1.965-0.393,4.093-0.801,6.345-1.134
			c2.251-0.341,4.626-0.637,7.082-0.878c4.912-0.49,10.152-0.724,15.392-0.727c5.24,0.012,10.479,0.249,15.391,0.743
			c4.912,0.483,9.497,1.206,13.427,2.014c3.93,0.809,7.205,1.717,9.497,2.457C184.01,144.933,185.32,145.503,185.32,145.503z"/>
		<path style="fill:#E24747;" d="M185.32,171.503c0,0-1.31,0.571-3.602,1.302c-2.292,0.74-5.567,1.649-9.497,2.457
			c-3.93,0.809-8.514,1.532-13.427,2.014c-4.912,0.494-10.152,0.731-15.391,0.743c-5.24-0.003-10.479-0.237-15.392-0.727
			c-2.456-0.241-4.83-0.538-7.082-0.878c-2.251-0.333-4.38-0.741-6.345-1.134c-1.965-0.412-3.766-0.836-5.362-1.259
			c-1.597-0.425-2.988-0.834-4.134-1.209c-2.292-0.736-3.602-1.31-3.602-1.31s1.31-0.574,3.602-1.31
			c1.146-0.375,2.538-0.783,4.134-1.209c1.596-0.423,3.397-0.847,5.362-1.259c1.965-0.393,4.093-0.801,6.345-1.134
			c2.251-0.341,4.626-0.637,7.082-0.878c4.912-0.49,10.152-0.724,15.392-0.727c5.24,0.012,10.479,0.249,15.391,0.743
			c4.912,0.483,9.497,1.206,13.427,2.014c3.93,0.809,7.205,1.717,9.497,2.457C184.01,170.933,185.32,171.503,185.32,171.503z"/>
		<path style="fill:#E24747;" d="M314.712,145.503c0,0-1.31,0.571-3.602,1.302c-2.292,0.74-5.567,1.649-9.497,2.457
			c-3.93,0.809-8.514,1.532-13.427,2.014c-4.912,0.494-10.152,0.731-15.391,0.743c-5.24-0.003-10.479-0.237-15.392-0.727
			c-2.456-0.241-4.83-0.538-7.082-0.878c-2.251-0.333-4.38-0.741-6.345-1.134c-1.965-0.412-3.766-0.836-5.362-1.259
			c-1.597-0.425-2.988-0.834-4.134-1.209c-2.292-0.736-3.602-1.31-3.602-1.31s1.31-0.574,3.602-1.31
			c1.146-0.375,2.538-0.783,4.134-1.209c1.596-0.423,3.397-0.847,5.362-1.259c1.965-0.393,4.093-0.801,6.345-1.134
			c2.251-0.341,4.626-0.637,7.082-0.878c4.912-0.49,10.152-0.724,15.392-0.727c5.24,0.012,10.479,0.249,15.391,0.743
			c4.912,0.483,9.497,1.206,13.427,2.014c3.93,0.809,7.205,1.717,9.497,2.457C313.402,144.933,314.712,145.503,314.712,145.503z"/>
		<path style="fill:#E24747;" d="M314.712,171.503c0,0-1.31,0.571-3.602,1.302c-2.292,0.74-5.567,1.649-9.497,2.457
			c-3.93,0.809-8.514,1.532-13.427,2.014c-4.912,0.494-10.152,0.731-15.391,0.743c-5.24-0.003-10.479-0.237-15.392-0.727
			c-2.456-0.241-4.83-0.538-7.082-0.878c-2.251-0.333-4.38-0.741-6.345-1.134c-1.965-0.412-3.766-0.836-5.362-1.259
			c-1.597-0.425-2.988-0.834-4.134-1.209c-2.292-0.736-3.602-1.31-3.602-1.31s1.31-0.574,3.602-1.31
			c1.146-0.375,2.538-0.783,4.134-1.209c1.596-0.423,3.397-0.847,5.362-1.259c1.965-0.393,4.093-0.801,6.345-1.134
			c2.251-0.341,4.626-0.637,7.082-0.878c4.912-0.49,10.152-0.724,15.392-0.727c5.24,0.012,10.479,0.249,15.391,0.743
			c4.912,0.483,9.497,1.206,13.427,2.014c3.93,0.809,7.205,1.717,9.497,2.457C313.402,170.933,314.712,171.503,314.712,171.503z"/>
	</g>
</g>
<g>
</g>
<g>
</g>
<g>
</g>
<g>
</g>
<g>
</g>
<g>
</g>
<g>
</g>
<g>
</g>
<g>
</g>
<g>
</g>
<g>
</g>
<g>
</g>
<g>
</g>
<g>
</g>
<g>
</g>
</svg>
