<?xml version="1.0" encoding="iso-8859-1"?>
<!-- Generator: Adobe Illustrator 19.0.0, SVG Export Plug-In . SVG Version: 6.00 Build 0)  -->
<svg version="1.1" id="Layer_1" xmlns="http://www.w3.org/2000/svg" xmlns:xlink="http://www.w3.org/1999/xlink" x="0px" y="0px"
	 viewBox="0 0 511.999 511.999" style="enable-background:new 0 0 511.999 511.999;" xml:space="preserve">
<g>
	<path style="fill:#B5651E;" d="M354.677,317.991c-12.09-15.334-21.71-32.526-29.411-52.561c-1.03-2.678-3.349-4.65-6.157-5.234
		c-2.808-0.586-5.721,0.296-7.735,2.338c-0.064,0.065-7.173,6.731-24.716,12.273c-2.514,0.794-4.497,2.715-5.388,5.163
		c-0.551,1.497-9.26,25.493-7.781,42.521c1.212,13.931,15.794,29.12,24.758,37.225L284,379.557
		c-9.523,3.146-36.564,13.942-39.149,35.74c-0.284,2.395,0.469,4.796,2.072,6.599c1.601,1.803,3.898,2.835,6.31,2.835h52.966
		c2.615,0,5.084-1.213,6.682-3.284l41.851-54.232c1.14-1.478,1.759-3.291,1.759-5.156v-38.843
		C356.49,321.321,355.851,319.48,354.677,317.991z"/>
	<path style="fill:#B5651E;" d="M199.15,283.801c-1.393-1.992-3.579-3.285-5.995-3.549c-8.52-0.934-17.379-2.184-26.33-3.715
		c-0.136-0.022-0.273-0.043-0.412-0.06c-1.415-0.208-2.962-0.485-4.604-0.824c-0.071-0.016-0.141-0.028-0.212-0.042l-0.851-0.152
		c-0.218-0.068-0.441-0.127-0.668-0.178c-1.242-0.279-2.485-0.585-3.722-0.899c-2.387-0.602-4.919-0.14-6.933,1.277
		c-2.014,1.416-3.31,3.641-3.546,6.091l-9.957,103.018c-7.598,5.368-23.201,17.63-26.041,29.567
		c-0.598,2.512-0.012,5.16,1.589,7.185c1.6,2.027,4.04,3.208,6.623,3.208h47.468c3.843,0,7.2-2.596,8.168-6.313l22.938-88.117
		c0.114-0.437,0.191-0.881,0.234-1.33l3.746-39.521C200.834,287.453,200.3,285.443,199.15,283.801z"/>
	<path style="fill:#B5651E;" d="M502.738,232.167c-2.566-5.304-7.145-9.306-12.562-10.981c-5.281-1.634-10.853-1.005-15.678,1.761
		c-9.858,5.631-13.638,18.339-8.607,28.93c2.443,5.141,6.791,19.12,3.807,27.176c-0.807,2.176-2.677,5.362-9.581,7.889
		c-2.634,0.962-10.662,3.904-24.458-12.756c-11.126-13.434-23.121-36.335-35.654-68.064c-1.573-3.987-5.882-6.161-10.031-5.053
		c-4.141,1.107-6.794,5.144-6.169,9.387c0.285,1.927,0.455,3.788,0.52,5.688c0.331,9.749-0.422,22.028-1.219,35.028
		c-0.29,4.746-0.585,9.555-0.833,14.34c-0.079,1.534,0.261,3.06,0.986,4.415c3.956,7.401,7.964,14.15,11.916,20.059
		c18.437,27.562,38.599,41.475,60.045,41.475c2.772,0,5.564-0.232,8.377-0.698c3.348-0.553,6.741-1.454,10.08-2.677
		c21.319-7.796,30.562-22.435,34.563-33.343C518.619,266.44,504.394,235.592,502.738,232.167z"/>
</g>
<path style="fill:#FF9F34;" d="M403.309,318.404c-6.683-11.941-4.839-42.034-3.356-66.213c0.822-13.406,1.599-26.07,1.241-36.62
	c-0.767-22.598-12.382-51.289-63.356-59.638c-17.339-2.839-39.581,1.9-65.332,7.387c-24.278,5.175-51.783,11.04-77.618,10.477
	c-48.057-1.05-94.113-68.68-94.573-69.363c-1.849-2.753-5.035-4.057-8.113-3.652c-1.067-2.593-3.02-4.49-6.348-4.927
	c-1.762-0.231-3.37-0.163-4.837,0.123c-0.874-1.6-2.265-2.934-4.072-3.708c-13.789-5.909-43.898-9.677-59.134,18.377
	C6.446,131.58,0.605,150.674,0.362,151.476c-0.834,2.754-0.207,5.744,1.663,7.931l20.358,23.812
	c2.636,3.081,7.091,3.854,10.611,1.839c9.531-5.459,20.26-10.297,25.201-11.485c4.48,6.392,13.601,20.269,21.331,37.475
	c9.711,21.616,13.763,41.153,11.722,56.5c-1.247,9.371-18.162,70.858-29.904,112.329c-10.453,4.799-33.791,17.617-33.791,36.413
	c0,4.661,3.779,8.44,8.44,8.44h48.952c3.205,0,6.133-1.815,7.559-4.686c0.352-0.709,31.694-63.807,63.879-128.244
	c0.102,0.022,0.198,0.06,0.302,0.08c92.608,17.198,138.62,0.207,156.904-10.422c15.947,36.728,35.308,56.497,48.476,69.942
	c6.241,6.372,11.632,11.876,12.357,15.232c0.434,2.008-3.078,7.699-7.338,12.188c-17.761,3.408-24.86,24.153-26.252,36.527
	c-0.268,2.388,0.493,4.777,2.094,6.569s3.89,2.816,6.293,2.816h53.459c3.106,0,5.961-1.706,7.432-4.442
	C434.726,374.532,413.507,336.622,403.309,318.404z"/>
<path style="fill:#DA7A27;" d="M402.677,424.73c3.106,0,5.961-1.706,7.432-4.442c24.616-45.757,3.397-83.666-6.8-101.885
	c-6.683-11.941-4.839-42.034-3.356-66.213c0.822-13.406,1.599-26.07,1.241-36.62c-0.767-22.598-12.382-51.289-63.356-59.638
	c-11.59-1.898-25.38-0.403-40.933,2.431c47.941,3.714,72.297,26.545,73.347,57.493c1.062,31.305-8.495,85.799,3.186,106.67
	c11.284,20.16,22.104,63.113,3.359,102.204L402.677,424.73L402.677,424.73z"/>
<path style="fill:#FFDCAF;" d="M102.697,202.018c-15.821-37.802-44.502-28.445-44.502-28.445
	c4.48,6.392,13.601,20.269,21.331,37.475c9.711,21.616,13.763,41.153,11.722,56.5C105.912,257.045,115.428,232.437,102.697,202.018z
	"/>
<path d="M42.2,139.478c-5.38,0-9.758-4.37-9.758-9.74c0-5.371,4.378-9.741,9.758-9.741s9.758,4.37,9.758,9.741
	C51.958,135.108,47.582,139.478,42.2,139.478z"/>
<g>
	<circle style="fill:#A86B38;" cx="177.828" cy="222.808" r="6.575"/>
	<circle style="fill:#A86B38;" cx="195.473" cy="210.181" r="6.575"/>
	<circle style="fill:#A86B38;" cx="194.156" cy="191.5" r="6.575"/>
	<circle style="fill:#A86B38;" cx="194.156" cy="232.666" r="6.575"/>
	<circle style="fill:#A86B38;" cx="214.671" cy="195.439" r="6.575"/>
	<circle style="fill:#A86B38;" cx="212.837" cy="222.009" r="6.575"/>
	<circle style="fill:#A86B38;" cx="118.218" cy="210.181" r="6.575"/>
	<circle style="fill:#A86B38;" cx="146.093" cy="191.5" r="6.575"/>
	<circle style="fill:#A86B38;" cx="161.893" cy="210.181" r="6.575"/>
	<circle style="fill:#A86B38;" cx="111.646" cy="172.82" r="6.575"/>
	<circle style="fill:#A86B38;" cx="122.314" cy="155.017" r="6.575"/>
	<circle style="fill:#A86B38;" cx="102.699" cy="151.674" r="6.575"/>
	<circle style="fill:#A86B38;" cx="158.1" cy="229.38" r="6.575"/>
	<circle style="fill:#A86B38;" cx="175.656" cy="200.706" r="6.575"/>
	<circle style="fill:#A86B38;" cx="142.098" cy="212.128" r="6.575"/>
	<circle style="fill:#A86B38;" cx="175.656" cy="242.017" r="6.575"/>
	<circle style="fill:#A86B38;" cx="136.899" cy="170.929" r="6.575"/>
	<circle style="fill:#A86B38;" cx="164.672" cy="182.295" r="6.575"/>
	<circle style="fill:#A86B38;" cx="124.441" cy="188.867" r="6.575"/>
	<circle style="fill:#A86B38;" cx="340.002" cy="226.667" r="6.575"/>
	<circle style="fill:#A86B38;" cx="357.647" cy="214.041" r="6.575"/>
	<circle style="fill:#A86B38;" cx="356.342" cy="195.36" r="6.575"/>
	<circle style="fill:#A86B38;" cx="356.342" cy="236.537" r="6.575"/>
	<circle style="fill:#A86B38;" cx="376.845" cy="199.299" r="6.575"/>
	<circle style="fill:#A86B38;" cx="375.022" cy="225.88" r="6.575"/>
	<circle style="fill:#A86B38;" cx="280.392" cy="214.041" r="6.575"/>
	<circle style="fill:#A86B38;" cx="308.267" cy="195.36" r="6.575"/>
	<circle style="fill:#A86B38;" cx="324.078" cy="214.041" r="6.575"/>
	<circle style="fill:#A86B38;" cx="270.849" cy="188.867" r="6.575"/>
	<circle style="fill:#A86B38;" cx="235.851" cy="192.727" r="6.575"/>
	<circle style="fill:#A86B38;" cx="229.278" cy="209.416" r="6.575"/>
	<circle style="fill:#A86B38;" cx="320.274" cy="233.24" r="6.575"/>
	<circle style="fill:#A86B38;" cx="337.83" cy="204.566" r="6.575"/>
	<circle style="fill:#A86B38;" cx="304.272" cy="215.988" r="6.575"/>
	<circle style="fill:#A86B38;" cx="337.83" cy="245.877" r="6.575"/>
	<circle style="fill:#A86B38;" cx="292.039" cy="179.392" r="6.575"/>
	<circle style="fill:#A86B38;" cx="326.858" cy="186.155" r="6.575"/>
	<circle style="fill:#A86B38;" cx="292.501" cy="199.299" r="6.575"/>
	<circle style="fill:#A86B38;" cx="253.237" cy="195.36" r="6.575"/>
	<circle style="fill:#A86B38;" cx="273.82" cy="232.666" r="6.575"/>
	<circle style="fill:#A86B38;" cx="304.272" cy="246.609" r="6.575"/>
	<circle style="fill:#A86B38;" cx="348.937" cy="180.292" r="6.575"/>
	<circle style="fill:#A86B38;" cx="292.501" cy="232.666" r="6.575"/>
	<circle style="fill:#A86B38;" cx="245.461" cy="218.7" r="6.575"/>
	<circle style="fill:#A86B38;" cx="139.509" cy="232.666" r="6.575"/>
	<circle style="fill:#A86B38;" cx="310.855" cy="179.392" r="6.575"/>
	<circle style="fill:#A86B38;" cx="216.056" cy="242.715" r="6.575"/>
	<circle style="fill:#A86B38;" cx="371.185" cy="255.87" r="6.575"/>
	<circle style="fill:#A86B38;" cx="370.273" cy="280.718" r="6.575"/>
	<circle style="fill:#A86B38;" cx="118.522" cy="233.24" r="6.575"/>
	<circle style="fill:#A86B38;" cx="148.287" cy="247.97" r="6.575"/>
	<circle style="fill:#A86B38;" cx="126.602" cy="254.542" r="6.575"/>
	<circle style="fill:#A86B38;" cx="231.979" cy="231.461" r="6.575"/>
	<circle style="fill:#A86B38;" cx="255.071" cy="235.963" r="6.575"/>
	<circle style="fill:#A86B38;" cx="93.313" cy="168.217" r="6.575"/>
	<circle style="fill:#A86B38;" cx="261.644" cy="212.128" r="6.575"/>
	<circle style="fill:#A86B38;" cx="351.671" cy="265.222" r="6.575"/>
	<circle style="fill:#A86B38;" cx="326.227" cy="171.255" r="6.575"/>
	<circle style="fill:#A86B38;" cx="280.392" cy="249.287" r="6.575"/>
</g>
<path style="fill:#FFDCAF;" d="M222.701,256.002c-49.09,4.979-63.637,29.166-66.319,35.798c0.102,0.022,0.198,0.06,0.302,0.08
	c92.608,17.198,138.62,0.207,156.904-10.422C301.694,264.882,260.399,252.178,222.701,256.002z"/>
<path style="fill:#B5651E;" d="M98.665,94.913c-2.57-4.137-6.73-6.776-11.713-7.428c-16.088-2.101-24.739,11.618-27.066,19.17
	c-0.252,0.818-0.371,1.645-0.375,2.461l0,0l0,0c-0.005,1.16,0.231,2.295,0.672,3.339c1.803,6.581,8.249,20.45,30.451,18.509
	c3.512,0,6.793-2.21,7.989-5.72c0.064-0.189,1.591-4.703,2.478-10.222C102.472,106.486,101.653,99.72,98.665,94.913z"/>
<g>
</g>
<g>
</g>
<g>
</g>
<g>
</g>
<g>
</g>
<g>
</g>
<g>
</g>
<g>
</g>
<g>
</g>
<g>
</g>
<g>
</g>
<g>
</g>
<g>
</g>
<g>
</g>
<g>
</g>
</svg>
