<?xml version="1.0" encoding="iso-8859-1"?>
<!-- Generator: Adobe Illustrator 19.0.0, SVG Export Plug-In . SVG Version: 6.00 Build 0)  -->
<svg version="1.1" id="Layer_1" xmlns="http://www.w3.org/2000/svg" xmlns:xlink="http://www.w3.org/1999/xlink" x="0px" y="0px"
	 viewBox="0 0 512.001 512.001" style="enable-background:new 0 0 512.001 512.001;" xml:space="preserve">
<path style="fill:#FFDCAF;" d="M161.414,10.787C155.652,3.628,147.316,0,136.637,0c-16.819,0-27.649,16.63-31.593,23.929
	L77.605,35.214c-2.981,1.227-4.996,4.052-5.188,7.269c-0.19,3.218,1.478,6.26,4.293,7.83c0.609,0.34,14.987,8.354,21.008,11.591
	c4.497,2.416,12.858,4.481,18.99,5.772v120.626c0,4.638,3.759,8.397,8.397,8.397h36.389c4.637,0,8.396-3.758,8.396-8.397V41.539
	C169.89,27.929,167.117,17.87,161.414,10.787z"/>
<g>
	<path style="fill:#FF9F34;" d="M252.228,343.802c-1.416-1.787-3.497-2.919-5.767-3.14c-5.121-0.497-10.639-0.996-16.402-1.482
		h-0.001c-5.267-0.444-10.283-1.317-14.905-2.593c-2.528-0.7-5.235-0.175-7.322,1.412c-2.086,1.587-3.31,4.059-3.31,6.681v29.659
		c-9.201,48.927-21.68,86.157-27.676,90.535c-17.035,7.757-34.719,31.076-36.685,33.717c-1.895,2.547-2.193,5.946-0.768,8.783
		s4.328,4.628,7.503,4.628h55.602c3.745,0,7.037-2.48,8.071-6.08c6.546-22.799,25.544-84.844,34.721-97.955
		c0.77-1.101,1.265-2.37,1.443-3.702l7.24-54.132C254.273,347.873,253.644,345.588,252.228,343.802z"/>
	<path style="fill:#FF9F34;" d="M339.514,361.397c-0.193-3.917-3.072-7.178-6.933-7.857c-5-0.878-9.805-1.777-14.452-2.645
		c-8.514-1.592-17.319-3.238-27.865-4.868c-2.712-0.413-5.461,0.515-7.358,2.502c-1.895,1.987-2.7,4.777-2.153,7.467L304.37,472.22
		c-7.472,5.393-21.196,16.429-26.327,27.974c-1.154,2.596-0.917,5.602,0.633,7.986c1.548,2.383,4.197,3.821,7.041,3.821h45.901
		c4.03,0,7.491-2.864,8.248-6.821l5.17-27.069c0.125-0.655,0.171-1.323,0.139-1.988L339.514,361.397z"/>
</g>
<path style="fill:#2A2A2C;" d="M426.103,249.653c-13.08-22.348-32.967-38.427-48.364-39.102c-7.977-0.348-15.86-5.514-24.987-11.494
	c-14.279-9.356-32.044-21.008-58.614-19.131c-23.941,1.686-42.857,13.325-58.055,22.678c-11.902,7.323-22.185,13.638-30.986,13.213
	c-16.252-0.804-31.644-22.996-36.198-31.47c-1.46-2.733-4.307-4.441-7.407-4.441H125.13c-4.414,0-8.075,3.419-8.376,7.822
	c-0.228,3.328-4.887,79.001,37.703,99.725c0.992,6.4,3.532,17.625,9.937,29.176c8.987,16.209,27.43,36.182,64.255,39.284
	c45.427,3.828,66.252,7.721,86.39,11.488c8.151,1.525,16.58,3.101,26.498,4.653c7.044,1.102,13.422,1.655,19.16,1.655
	c14.254,0,24.546-3.413,31.21-10.3c4.891-5.054,7.614-11.723,8.15-19.923c4.152,1.086,8.266,1.343,12.338,0.524
	c8.29-1.671,15.048-7.57,20.083-17.531C443.844,303.995,441.521,275.993,426.103,249.653z"/>
<path style="fill:#161618;" d="M426.103,249.653c-13.08-22.348-32.967-38.427-48.364-39.102c-7.977-0.348-15.86-5.514-24.987-11.494
	c-14.279-9.356-32.044-21.008-58.614-19.131c-3.454,0.243-6.791,0.714-10.04,1.334c15.704,3.257,27.689,11.11,37.892,17.796
	c9.128,5.981,17.01,11.145,24.987,11.494c15.397,0.675,35.284,16.754,48.364,39.102c15.417,26.34,17.74,54.342,6.376,76.825
	c-5.035,9.961-11.792,15.859-20.082,17.531c-4.073,0.819-8.187,0.562-12.34-0.524c-0.536,8.201-3.259,14.87-8.15,19.923
	c-4.265,4.408-10.024,7.384-17.348,8.963c6.144,0.874,11.791,1.338,16.9,1.338c14.254,0,24.546-3.413,31.21-10.3
	c4.891-5.054,7.614-11.723,8.15-19.923c4.152,1.086,8.266,1.343,12.338,0.524c8.29-1.671,15.048-7.57,20.083-17.531
	C443.844,303.995,441.521,275.993,426.103,249.653z"/>
<path style="fill:#ADACB2;" d="M366.863,307.772c-12.164-10.703-32.942-21.056-43.735-24.13
	c18.392,7.887,40.414,31.535,38.927,57.118c-0.582,10.021-10.125,17.234-22.864,22.415c0.466,0.076-6.647,2.684-15.418,5.845
	c5.516,1.008,11.323,2.025,17.764,3.033c7.044,1.102,13.422,1.655,19.16,1.655c14.254,0,24.546-3.413,31.21-10.3
	c4.891-5.054,7.614-11.723,8.15-19.923C392.245,333.293,376.944,316.642,366.863,307.772z"/>
<path d="M137.435,42.969c-5.326,0-9.659-4.325-9.659-9.641s4.333-9.643,9.659-9.643s9.658,4.326,9.658,9.643
	S142.761,42.969,137.435,42.969z"/>
<path style="fill:#FF9F34;" d="M111.134,30.503c-1.496-1.813-4.185-3.952-7.268-6.089l-26.261,10.8
	c-2.981,1.227-4.996,4.052-5.188,7.269c-0.19,3.218,1.478,6.26,4.293,7.83c0.609,0.34,14.987,8.354,21.008,11.591
	c4.497,2.416,12.858,4.481,18.99,5.772C129.282,49.107,116.415,36.899,111.134,30.503z"/>
<g>
</g>
<g>
</g>
<g>
</g>
<g>
</g>
<g>
</g>
<g>
</g>
<g>
</g>
<g>
</g>
<g>
</g>
<g>
</g>
<g>
</g>
<g>
</g>
<g>
</g>
<g>
</g>
<g>
</g>
</svg>
