<?xml version="1.0" encoding="iso-8859-1"?>
<!-- Generator: Adobe Illustrator 19.0.0, SVG Export Plug-In . SVG Version: 6.00 Build 0)  -->
<svg version="1.1" id="Layer_1" xmlns="http://www.w3.org/2000/svg" xmlns:xlink="http://www.w3.org/1999/xlink" x="0px" y="0px"
	 viewBox="0 0 512.001 512.001" style="enable-background:new 0 0 512.001 512.001;" xml:space="preserve">
<path style="fill:#A86B38;" d="M498.08,92.718c-12.62-24.33-32.954-45.026-60.433-61.516
	c-29.063-17.437-61.272-23.064-93.147-16.277c-28.714,6.116-55.19,22.042-74.549,44.845c-17.829,20.999-28.276,46.63-29.416,72.17
	c-1.274,28.556,8.828,56.358,29.216,80.399c0.149,0.175,0.29,0.352,0.438,0.528c-4.8,0.964-10.662,1.983-16.9,2.707
	c-18.942,2.201-32.919,0.72-39.348-4.172c-2.765-2.103-3.998-4.822-3.998-8.815c0-46.46-29.657-61.245-34.773-63.449
	c-7.915-22.351-23.038-37.727-23.9-38.59c-1.837-1.836-4.414-2.727-6.996-2.416c-2.579,0.312-4.872,1.792-6.219,4.014
	c-5.811,9.588-10.194,18.959-13.132,28.048c-7.422-14.143-21.091-23.663-21.091-23.663c-9.279,16.805-11.306,31.303-11.472,40.104
	c-1.34,0.566-2.69,1.168-4.049,1.813c-19.717,9.366-44.772,29.368-52.158,71.472c-0.426,2.433,0.231,4.932,1.802,6.838
	c0.425,0.517,10.628,12.745,28.907,20.988c8.885,4.007,20.651,7.47,34.774,7.47c1.854,0,3.754-0.068,5.688-0.194l-5.463,9.392
	c-5.005-1.084-12.514-2.482-20.978-3.295c-21.003-2.02-37.164,0.523-48.034,7.557c-18.312,11.847-30.127,25.834-32.418,38.37
	c-1.226,6.711,0.164,13.026,4.019,18.259c6.886,9.346,15.057,11.33,20.75,11.33c0.048,0,0.097,0,0.144,0
	c13.207-0.078,25.804-10.872,33.563-19.197c10.209,14.171,31.502,38.633,58.298,41.219c1.582,0.153,3.153,0.229,4.719,0.229
	c4.598,0,9.116-0.682,13.554-1.996c-2.104,9.123-1.95,18.581,0.509,28.288c5.992,23.656,24.756,44.607,41.95,59.602
	c-19.471-2.629-42.784-3.329-61.643,3.309c-33.988,11.967-42.64,32.987-42.395,43.522c0.107,4.592,3.862,8.261,8.456,8.261h149.057
	c54.819,0,106.714-22.96,142.375-62.995c18.1-20.319,31.056-43.402,38.507-68.61c8.332-28.182,9.806-59.221,4.415-92.354
	c51.34-18.13,88.048-61.192,94.349-111.551C514.134,139.787,509.645,115.015,498.08,92.718z"/>
<g>
	<path style="fill:#8C4A14;" d="M270.187,212.867c-4.8,0.964-10.662,1.983-16.9,2.707c-1.565,0.182-3.083,0.329-4.58,0.461
		c19.246,28.041,60.763,96.241,57.097,184.918C305.804,400.954,361.373,306.91,270.187,212.867z"/>
	<path style="fill:#8C4A14;" d="M117.207,358.656c1.582,0.153,3.153,0.229,4.719,0.229c3.488,0,6.93-0.397,10.327-1.16
		c8.583-2.486,17.481-7.868,26.435-17.306c-0.248,0.29-0.492,0.602-0.739,0.899c7.651-7.573,15.665-22.557,24.853-26.134
		c26.941-10.491,61.712,10.47,61.712,10.47c-45.853-65.8-69.672-20.925-114.508-3.804c-44.836,17.12-71.098-4.413-71.098-4.413
		C69.119,331.608,90.411,356.07,117.207,358.656z M160.82,329.12h0.002c-0.017,0.018-0.033,0.036-0.05,0.053
		C160.788,329.156,160.804,329.139,160.82,329.12z"/>
	<path style="fill:#8C4A14;" d="M138.217,329.174c0.017-0.017,0.033-0.036,0.05-0.053h-0.002
		C138.248,329.139,138.232,329.156,138.217,329.174z"/>
	<path style="fill:#8C4A14;" d="M498.08,92.718c-12.62-24.33-32.954-45.026-60.433-61.516
		c-29.063-17.437-61.272-23.064-93.147-16.277c-6.708,1.429-13.285,3.414-19.686,5.875c18.192,1.409,57.664,1.109,85.926,17.654
		c95.23,55.752,85.994,158.375,19.607,208.655c-5.656,4.283-10.801,9.088-15.412,14.305c-9.193-80.426-1.608-115.493-1.608-115.493
		c-48.099,32.197-34.371,130.661-27.544,166.41c2.085,10.919,2.39,22.13,0.551,33.095c-6.076,36.238-22.305,64.367-41.416,85.821
		c-34.456,38.68-111.949,68.622-163.751,68.622h50.247c54.819,0,106.714-22.96,142.375-62.995
		c18.1-20.319,31.056-43.402,38.507-68.611c7.831-26.489,9.601-55.502,5.31-86.406c-0.273-1.975-0.571-3.957-0.894-5.948
		c51.34-18.13,88.048-61.192,94.349-111.551C514.134,139.787,509.645,115.015,498.08,92.718z"/>
	<path style="fill:#8C4A14;" d="M240.14,216.535c-12.268,0.293-21.368-1.456-26.202-5.134c-2.765-2.103-3.998-4.822-3.998-8.815
		c0-42.68-25.013-58.62-33.052-62.641l-1.827-0.549c1.084,1.413,6.105,13.992,6.105,55.876
		C181.167,216.684,210.468,229.103,240.14,216.535C240.142,216.536,240.14,216.535,240.14,216.535z"/>
</g>
<path d="M95.282,211.045c-5.453,0-9.888-4.428-9.888-9.869c0-5.443,4.436-9.87,9.888-9.87s9.888,4.428,9.888,9.87
	C105.169,206.618,100.734,211.045,95.282,211.045z"/>
<path style="fill:#512807;" d="M129.628,118.112c-8.1-11.101-17.918-18.047-18.607-18.526c-1.967-1.368-4.422-1.841-6.752-1.294
	c-2.332,0.545-4.325,2.051-5.482,4.149c-11.066,20.038-12.7,37.288-12.505,46.867c9.001-3.386,18.505-7.248,30.907-10.202
	c1.315-0.314,3.954-0.865,5.373-1.15C125.355,130.224,127.521,122.722,129.628,118.112z"/>
<g>
</g>
<g>
</g>
<g>
</g>
<g>
</g>
<g>
</g>
<g>
</g>
<g>
</g>
<g>
</g>
<g>
</g>
<g>
</g>
<g>
</g>
<g>
</g>
<g>
</g>
<g>
</g>
<g>
</g>
</svg>
