<?xml version="1.0" encoding="iso-8859-1"?>
<!-- Generator: Adobe Illustrator 18.0.0, SVG Export Plug-In . SVG Version: 6.00 Build 0)  -->
<!DOCTYPE svg PUBLIC "-//W3C//DTD SVG 1.1//EN" "http://www.w3.org/Graphics/SVG/1.1/DTD/svg11.dtd">
<svg version="1.1" id="Capa_1" xmlns="http://www.w3.org/2000/svg" xmlns:xlink="http://www.w3.org/1999/xlink" x="0px" y="0px"
	 viewBox="0 0 432.008 432.008" style="enable-background:new 0 0 432.008 432.008;" xml:space="preserve">
<g>
	<g>
		<path style="fill:#808080;" d="M72.949,172.051L72.949,172.051l0-34.329c0-40.289,32.66-72.949,72.949-72.949h0v34.329
			C145.899,139.39,113.238,172.051,72.949,172.051z"/>
		<path style="fill:#808080;" d="M72.949,172.051L72.949,172.051l0-34.329c0-40.289-32.66-72.949-72.949-72.949h0l0,34.329
			C0,139.39,32.66,172.051,72.949,172.051z"/>
	</g>
	<path style="fill:#808080;" d="M432.008,207.656c0,88.13-71.44,159.58-159.58,159.58c-13.36,0-26.42-1.32-39.05-3.83
		c-6.85-1.36-13.58-3.07-20.16-5.11c-12.87-3.99-25.18-9.24-36.78-15.64c-1.25-0.68-2.49-1.39-3.72-2.1
		c-4.32-2.49-8.54-5.15-12.65-7.95c-7.29-4.97-14.23-10.42-20.78-16.3c-2.84-2.55-5.61-5.17-8.3-7.88
		c-19.93-20.04-35.64-44.29-45.65-71.31c-8.02-21.6-12.39-44.96-12.39-69.35h3.37c58.92,0,115.83-21.76,159.46-61.33
		c18.13-16.43,42.17-26.45,68.56-26.45c60.07,0,110.43,41.47,124.04,97.35C430.748,187.055,432.008,197.215,432.008,207.656z"/>
	<circle style="fill:#4D4D4D;" cx="274.008" cy="178.135" r="10.013"/>
	<path style="fill:#3C6DB5;" d="M188.628,295.186l-28.56,37.42c-7.29-4.97-14.23-10.42-20.78-16.3c-2.84-2.55-5.61-5.17-8.3-7.88
		C157.028,293.526,188.628,295.186,188.628,295.186z"/>
	<g>
		<path style="fill:#E6E6E6;" d="M432.008,207.656c0,88.13-71.44,159.58-159.58,159.58c-13.36,0-26.42-1.32-39.05-3.83
			c-6.85-1.36-13.58-3.07-20.16-5.11c-12.87-3.99-25.18-9.24-36.78-15.64c-1.25-0.68-2.49-1.39-3.72-2.1
			c-4.32-2.49-8.54-5.15-12.65-7.95c-7.29-4.97-14.23-10.42-20.78-16.3c-2.84-2.55-5.61-5.17-8.3-7.88
			c-19.93-20.04-35.64-44.29-45.65-71.31c20.51,19.2,48.07,30.95,78.37,30.95c32.77,0,62.33-13.74,83.23-35.78
			c2.56-3.26,28.41-29.02,40.27-36.69c2.66-1.73,5.36-3.37,8.12-4.93c15.49-8.81,32.56-15.19,50.65-18.6c2.81-0.54,5.64-1,8.49-1.37
			c0-0.01,0-0.01,0-0.01c7.34-1.01,14.83-1.52,22.44-1.52c6.44,0,12.79,0.37,19.04,1.09c3.05,0.34,6.05,0.77,9.04,1.28
			c8,1.38,15.82,3.31,23.39,5.8C430.748,187.055,432.008,197.215,432.008,207.656z"/>
	</g>
	<path style="fill:#808080;" d="M108.027,347.545L108.027,347.545L108.027,347.545c0-53.365,43.261-96.625,96.625-96.625h0v0
		C204.652,304.284,161.391,347.545,108.027,347.545z"/>
</g>
<g>
</g>
<g>
</g>
<g>
</g>
<g>
</g>
<g>
</g>
<g>
</g>
<g>
</g>
<g>
</g>
<g>
</g>
<g>
</g>
<g>
</g>
<g>
</g>
<g>
</g>
<g>
</g>
<g>
</g>
</svg>
