<?xml version="1.0" encoding="iso-8859-1"?>
<!-- Generator: Adobe Illustrator 18.0.0, SVG Export Plug-In . SVG Version: 6.00 Build 0)  -->
<!DOCTYPE svg PUBLIC "-//W3C//DTD SVG 1.1//EN" "http://www.w3.org/Graphics/SVG/1.1/DTD/svg11.dtd">
<svg version="1.1" id="Capa_1" xmlns="http://www.w3.org/2000/svg" xmlns:xlink="http://www.w3.org/1999/xlink" x="0px" y="0px"
	 viewBox="0 0 449.606 449.606" style="enable-background:new 0 0 449.606 449.606;" xml:space="preserve">
<g>
	<path style="fill:#B54731;" d="M329.353,354.215l-41.152-41.152c-17.312-17.312-27.038-40.792-27.038-65.275v0h-72.72v0
		c0,24.483-9.726,47.963-27.038,65.275l-41.152,41.152c-4.759,4.759-7.38,11.086-7.38,17.816c0,6.73,2.621,13.058,7.38,17.816
		l59.759,59.759c6.174-6.174,6.174-16.183,0-22.357l-48.58-48.58c-3.66-3.66-3.66-9.615,0-13.276l67.322-67.322
		c0.556-0.556,1.31-0.868,2.095-0.868l0,0c2.007,0,3.433,1.953,2.823,3.864l-20.199,63.305c-1.599,5.01-1.599,10.308,0,15.318
		l21.91,68.671c8.318-2.654,12.909-11.548,10.255-19.866l-17.105-53.61c-0.595-1.867-0.595-3.84,0-5.707l22.307-69.912
		c0.392-1.229,1.534-2.063,2.823-2.063h2.279c1.29,0,2.431,0.834,2.823,2.063l22.307,69.912c0.595,1.867,0.595,3.84,0,5.707
		l-17.105,53.61c-2.654,8.318,1.937,17.212,10.255,19.866l21.91-68.671c1.599-5.01,1.599-10.308,0-15.318l-20.199-63.305
		c-0.61-1.912,0.817-3.864,2.823-3.864l0,0c0.786,0,1.54,0.312,2.095,0.868l67.322,67.322c1.915,1.915,2.901,4.512,2.731,7.243
		c-0.148,2.376-1.282,4.584-2.965,6.267l-48.346,48.346c-6.174,6.174-6.174,16.183,0,22.357l59.759-59.759
		c4.759-4.759,7.38-11.086,7.38-17.816C336.733,365.302,334.112,358.974,329.353,354.215z"/>
	<path style="fill:#B54731;" d="M125.802,99.001C158.802,55.58,181.382,33,224.803,0c43.421,33,66.001,55.58,99.002,99.001
		c-33.001,43.422-55.58,66.001-99.002,99.001C181.382,165.002,158.802,142.423,125.802,99.001z"/>
	<path style="fill:#E5583C;" d="M273.81,247.788V104.854c0-36.798-18.39-71.162-49.007-91.576l0,0l0,0
		c-30.617,20.413-49.007,54.777-49.007,91.576v142.934H273.81z"/>
	<g>
		<g>
			<circle style="fill:#FFFFFF;" cx="254.873" cy="248.724" r="19.867"/>
			<circle style="fill:#4D4D4D;" cx="254.873" cy="248.724" r="12.155"/>
		</g>
		<g>
			<circle style="fill:#FFFFFF;" cx="194.733" cy="248.724" r="19.867"/>
			<circle style="fill:#4D4D4D;" cx="194.733" cy="248.724" r="12.155"/>
		</g>
	</g>
	<path style="fill:#B54731;" d="M224.803,35.41c0,0,0.738,1.695,1.685,4.66c0.957,2.965,2.133,7.202,3.179,12.285
		c1.046,5.084,1.981,11.014,2.606,17.369c0.639,6.354,0.945,13.132,0.961,19.91c-0.003,6.778-0.306,13.556-0.94,19.911
		c-0.311,3.177-0.695,6.249-1.136,9.161c-0.431,2.912-0.959,5.666-1.467,8.208c-0.533,2.542-1.081,4.872-1.628,6.937
		c-0.55,2.065-1.079,3.866-1.564,5.348c-0.952,2.965-1.694,4.66-1.694,4.66s-0.743-1.695-1.694-4.66
		c-0.485-1.483-1.013-3.283-1.564-5.348c-0.547-2.065-1.095-4.395-1.628-6.937c-0.508-2.542-1.036-5.295-1.467-8.208
		c-0.441-2.912-0.824-5.984-1.136-9.161c-0.634-6.354-0.937-13.132-0.94-19.911c0.016-6.778,0.323-13.556,0.961-19.91
		c0.624-6.354,1.56-12.285,2.606-17.369c1.046-5.084,2.222-9.32,3.179-12.285C224.065,37.105,224.803,35.41,224.803,35.41z"/>
	<g>
		<circle style="fill:#F47560;" cx="192.473" cy="140.697" r="8.431"/>
		<circle style="fill:#F47560;" cx="209.335" cy="149.656" r="4.216"/>
		<circle style="fill:#F47560;" cx="195.48" cy="168.766" r="13.174"/>
		<circle style="fill:#F47560;" cx="257.134" cy="140.697" r="8.431"/>
		<circle style="fill:#F47560;" cx="240.271" cy="149.656" r="4.216"/>
		<circle style="fill:#F47560;" cx="254.127" cy="168.766" r="13.174"/>
	</g>
</g>
<g>
</g>
<g>
</g>
<g>
</g>
<g>
</g>
<g>
</g>
<g>
</g>
<g>
</g>
<g>
</g>
<g>
</g>
<g>
</g>
<g>
</g>
<g>
</g>
<g>
</g>
<g>
</g>
<g>
</g>
</svg>
