<?xml version="1.0" encoding="iso-8859-1"?>
<!-- Generator: Adobe Illustrator 19.0.0, SVG Export Plug-In . SVG Version: 6.00 Build 0)  -->
<svg version="1.1" id="Layer_1" xmlns="http://www.w3.org/2000/svg" xmlns:xlink="http://www.w3.org/1999/xlink" x="0px" y="0px"
	 viewBox="0 0 511.999 511.999" style="enable-background:new 0 0 511.999 511.999;" xml:space="preserve">
<g>
	<path style="fill:#B5651E;" d="M479.704,472.057l-29.605-48.829c-1.592-2.628-4.486-4.197-7.557-4.057
		c-3.07,0.124-5.83,1.907-7.205,4.654l-13.212,26.391c-1.322,2.641-1.168,5.78,0.407,8.279l13.403,21.259
		c-4.842,5.197-11.263,13.662-12.304,22.858c-0.27,2.389,0.491,4.779,2.092,6.57c1.601,1.793,3.89,2.817,6.294,2.817h40.469
		c4.661,0,8.44-3.779,8.44-8.44v-27.127C480.926,474.889,480.502,473.375,479.704,472.057z"/>
	<path style="fill:#B5651E;" d="M404.036,370.863c-6.563-7.183-18.795-22.278-26.986-42.674c-1.713-4.265-6.523-6.375-10.823-4.746
		c-3.344,1.267-15.243,5.404-27.973,5.404c-2.532,0-4.93,1.137-6.533,3.097c-1.602,1.96-2.242,4.536-1.739,7.017
		c0.208,1.027,5.361,25.352,29.97,48.193l46.739,50.138c1.626,1.744,3.874,2.685,6.174,2.685c0.961,0,1.931-0.165,2.867-0.503
		c3.179-1.149,5.366-4.085,5.557-7.459C421.382,430.388,423.323,391.973,404.036,370.863z"/>
	<path style="fill:#B5651E;" d="M335.141,502.266l-27.18-175.353c-0.458-2.952-2.441-5.442-5.216-6.547
		c-10.675-4.254-18.524-8.554-18.602-8.597c-2.418-1.333-5.336-1.398-7.812-0.174c-2.477,1.224-4.197,3.583-4.607,6.315
		l-5.014,33.467c-0.145,0.967-0.12,1.951,0.072,2.91l24.031,119.84c-11.967,19.143-6.253,31.785-5.525,33.229
		c1.434,2.847,4.349,4.642,7.537,4.642h33.975c2.464,0,4.805-1.077,6.408-2.948C334.813,507.18,335.518,504.701,335.141,502.266z"/>
</g>
<g>
	<path style="fill:#A86B38;" d="M476.953,365.339c-0.253,0-0.508-0.011-0.763-0.034c-4.643-0.416-8.068-4.517-7.653-9.16
		c1.974-22.02,1.065-54.149-14.474-82.16c-9.26-16.693-19.514-24.169-19.617-24.243c-3.772-2.707-4.668-7.966-1.983-11.752
		c2.686-3.787,7.904-4.708,11.707-2.045c2.001,1.402,48.921,35.33,41.179,121.706C484.956,362.039,481.274,365.339,476.953,365.339z
		"/>
	<path style="fill:#A86B38;" d="M293.43,162.318c-18.8-9.771-42.196-21.929-58.263-54.059
		c-36.937-73.873-83.587-91.334-85.554-92.041c-4.197-1.509-8.843,0.51-10.607,4.606l-2.977,6.919
		c-0.598,1.387-0.811,2.91-0.619,4.409c0.116,0.906,0.123,1.673,0.02,2.283c-0.376,2.237,0.164,4.53,1.5,6.365
		c0.449,0.617,45.141,62.137,64.47,99.2c18.688,35.835,54.691,49.111,74.034,56.243c2.729,1.006,5.086,1.875,6.844,2.614
		c6.309,2.652,16.685,5.648,32.654,9.426c0.643,0.152,1.294,0.227,1.943,0.227c1.769,0,3.511-0.556,4.968-1.616
		c1.991-1.449,3.249-3.695,3.446-6.15C326.97,179.749,310.678,171.282,293.43,162.318z"/>
</g>
<path style="fill:#FF9F34;" d="M458.995,407.769l-14.633-35.378c1.824-6.72,6.377-24.346,9.824-44.904
	c5.961-35.547,5.567-61.551-1.171-77.289c-16.403-38.317-57.971-44.206-85.475-48.102c-6.467-0.916-12.052-1.707-16.145-2.751
	c-3.55-0.906-8.832-2.09-14.948-3.459c-15.074-3.376-37.853-8.479-47.628-12.587c-2.106-0.886-4.626-1.815-7.545-2.891
	c-17.205-6.344-49.231-18.154-64.907-48.211c-17.891-34.305-55.238-86.698-63.988-98.838c-0.059-10.419-6.654-20.356-7.492-21.578
	c-2.318-3.374-6.72-4.598-10.446-2.908c-6.188,2.809-10.264,5.738-12.95,8.442l1.881-6.539c1.29-4.479-1.297-9.155-5.777-10.444
	c-4.482-1.288-9.156,1.297-10.444,5.777l-2.772,9.631c-10.828-0.034-22.992,3.866-30.324,15.187
	c-2.356,3.638-9.171,10.751-28.341,17.518c-13.043,4.606-17.623,13.05-19.168,19.322c-1.616,6.561-0.195,11.935,0.107,12.946
	c0.284,0.952,0.734,1.847,1.329,2.642c10.311,13.789,32.323,8.793,40.772,6.22c19.698,6.674,46.914,1.886,56.085-0.056l5.068,2.521
	c2.736,9.515,10.671,36.194,21.214,63.645c6.803,17.717,27.509,71.631,51.914,81.303c4.757,1.885,7.827,4.125,8.647,6.309
	c1.391,3.71-2.084,10.448-5.149,16.393c-4.222,8.187-9.007,17.466-4.392,26.021c4.706,8.723,24.807,68.079,37.452,106.694v76.689
	c-7.548,7.216-22.036,22.616-22.036,34.466c0,4.661,3.779,8.44,8.44,8.44h34.909c2.947,0,5.68-1.537,7.211-4.054l9.583-15.761
	c0.825-1.357,1.25-2.918,1.228-4.506l-1.359-94.842l9.135-60.975c12.403,5.681,33.416,13.866,51.552,13.866
	c10.145,0,19.599-2.032,26.292-3.963c8.937,19.168,20.498,33.338,27.029,40.486c12.44,13.615,13.011,39.654,12.915,46.9
	l-24.688,42.459c-13.819,4.959-22.774,24.421-24.574,28.638c-1.113,2.607-0.843,5.598,0.72,7.964
	c1.563,2.365,4.207,3.789,7.042,3.789h36.869c2.624,0,5.097-1.22,6.695-3.302l14.374-18.729c0.326-0.425,0.611-0.881,0.852-1.36
	l36.963-73.835C459.838,412.585,459.93,410.029,458.995,407.769z"/>
<path style="fill:#DA7A27;" d="M444.361,372.39c1.824-6.72,6.377-24.346,9.824-44.904c5.961-35.547,5.567-61.551-1.171-77.289
	c-16.403-38.317-57.971-44.206-85.475-48.102c-6.467-0.916-12.052-1.707-16.145-2.751c-3.55-0.906-8.832-2.09-14.948-3.459
	c-15.074-3.376-37.853-8.479-47.628-12.587c-2.106-0.886-4.626-1.815-7.545-2.891c-17.205-6.344-49.231-18.154-64.907-48.211
	c-17.891-34.305-55.238-86.698-63.988-98.838c-0.059-10.419-6.654-20.356-7.492-21.578c-1.368-1.993-3.466-3.228-5.721-3.564
	c-0.363,0.279-0.722,0.571-1.078,0.872c-12.684,10.771-14.623,29.665-5.065,43.287c14.806,21.102,39.911,57.948,53.354,83.725
	c19.851,38.062,62.289,48.938,76.665,54.98c14.374,6.042,51.137,13.223,63.759,16.444c22.505,5.741,77.743,3.468,95.949,45.999
	c11.435,26.712-0.88,84.222-6.893,108.375c-1.822,7.317-1.263,15.021,1.619,21.989l6.99,16.899
	c2.683,6.486,2.419,13.818-0.724,20.094l-32.016,63.952l-20.668,27.169h28.799c2.623,0,5.097-1.22,6.694-3.302l14.374-18.729
	c0.326-0.425,0.611-0.881,0.852-1.36l36.963-73.836c1.095-2.188,1.187-4.743,0.252-7.004L444.361,372.39z"/>
<path style="fill:#2B2B2B;" d="M98.371,62.017c-5.353,0-9.708-4.348-9.708-9.692s4.355-9.692,9.708-9.692
	c5.353,0,9.708,4.348,9.708,9.692S103.724,62.017,98.371,62.017z"/>
<g>
	<path style="fill:#A86B38;" d="M287.414,208.548c0,6.44-6.835,6.8-13.275,6.8c-6.44,0-13.932-9.996-13.932-16.436
		s7.492-6.886,13.932-6.886C280.579,192.028,287.414,202.108,287.414,208.548z"/>
	<path style="fill:#A86B38;" d="M254.772,201.051c0,6.44-6.835,6.8-13.275,6.8c-6.44,0-13.932-9.996-13.932-16.436
		s7.492-6.886,13.932-6.886S254.772,194.611,254.772,201.051z"/>
	<path style="fill:#A86B38;" d="M281.979,233.782c0,6.44-6.835,6.8-13.275,6.8c-6.44,0-13.932-9.996-13.932-16.436
		s7.492-6.886,13.932-6.886C275.144,217.262,281.979,227.342,281.979,233.782z"/>
	<path style="fill:#A86B38;" d="M203.019,196.888c0,6.44-6.835,6.8-13.275,6.8c-6.44,0-13.932-9.996-13.932-16.436
		s7.492-6.886,13.932-6.886C196.184,180.366,203.019,190.448,203.019,196.888z"/>
	<path style="fill:#A86B38;" d="M174.887,144.423c0,6.44-6.835,6.8-13.275,6.8c-6.44,0-13.932-9.996-13.932-16.436
		c0-6.44,7.492-6.886,13.932-6.886C168.052,127.902,174.887,137.983,174.887,144.423z"/>
	<path style="fill:#A86B38;" d="M180.513,95.923c0,6.44-6.835,6.8-13.275,6.8c-6.44,0-13.932-9.996-13.932-16.436
		s7.492-6.886,13.932-6.886C173.679,79.402,180.513,89.483,180.513,95.923z"/>
	<path style="fill:#A86B38;" d="M206.907,153.959c0,6.44-6.835,6.8-13.275,6.8c-6.44,0-13.932-9.996-13.932-16.436
		s7.492-6.886,13.932-6.886C200.071,137.437,206.907,147.519,206.907,153.959z"/>
	<path style="fill:#A86B38;" d="M218.36,190.02c-4.413,4.69-9.638,0.268-14.328-4.146c-4.69-4.413-3.295-16.827,1.119-21.517
		s10.175,0.12,14.864,4.534C224.704,173.305,222.773,185.33,218.36,190.02z"/>
	<path style="fill:#A86B38;" d="M245.315,238.576c-4.413,4.69-9.638,0.268-14.328-4.146c-4.69-4.413-3.295-16.827,1.119-21.517
		s10.175,0.12,14.864,4.534C251.661,221.86,249.729,233.885,245.315,238.576z"/>
	<path style="fill:#A86B38;" d="M187.606,133.757c-4.413,4.69-9.638,0.268-14.327-4.145c-4.69-4.413-3.295-16.827,1.119-21.517
		c4.413-4.69,10.175,0.12,14.864,4.534C193.951,117.042,192.02,129.066,187.606,133.757z"/>
	<path style="fill:#A86B38;" d="M159.349,165.482c-1.998-6.121,4.387-8.586,10.509-10.584c6.121-1.998,16.346,5.178,18.345,11.3
		c1.998,6.121-4.985,8.87-11.106,10.869C170.975,179.066,161.349,171.604,159.349,165.482z"/>
	<path style="fill:#A86B38;" d="M222.08,223.778c-4.413,4.69-9.638,0.268-14.327-4.145c-4.69-4.413-3.295-16.827,1.119-21.517
		c4.413-4.69,10.175,0.12,14.864,4.534C228.424,207.063,226.493,219.088,222.08,223.778z"/>
	<path style="fill:#A86B38;" d="M371.365,221.776c0,6.44-6.835,6.8-13.275,6.8s-13.932-9.996-13.932-16.436
		s7.492-6.886,13.932-6.886S371.365,215.336,371.365,221.776z"/>
	<path style="fill:#A86B38;" d="M338.723,214.28c0,6.44-6.835,6.8-13.275,6.8s-13.932-9.996-13.932-16.436s7.492-6.886,13.932-6.886
		S338.723,207.84,338.723,214.28z"/>
	<path style="fill:#A86B38;" d="M365.93,247.011c0,6.44-6.835,6.8-13.275,6.8s-13.932-9.996-13.932-16.436s7.492-6.886,13.932-6.886
		S365.93,240.571,365.93,247.011z"/>
	<path style="fill:#A86B38;" d="M329.266,251.804c-4.413,4.69-9.638,0.268-14.328-4.146c-4.69-4.413-3.295-16.827,1.118-21.517
		s10.175,0.12,14.864,4.534C335.612,235.089,333.68,247.114,329.266,251.804z"/>
	<path style="fill:#A86B38;" d="M306.031,237.007c-4.413,4.69-9.638,0.268-14.328-4.145s-3.295-16.827,1.118-21.517
		s10.175,0.12,14.864,4.534C312.375,220.292,310.444,232.317,306.031,237.007z"/>
	<path style="fill:#A86B38;" d="M302.388,262.902c0,6.44-6.835,6.8-13.275,6.8c-6.44,0-13.932-9.996-13.932-16.436
		s7.492-6.886,13.932-6.886C295.552,246.381,302.388,256.462,302.388,262.902z"/>
	<path style="fill:#A86B38;" d="M268.856,259.291c0,6.44-6.835,6.8-13.275,6.8s-13.932-9.996-13.932-16.436
		s7.492-6.886,13.932-6.886C262.021,242.77,268.856,252.851,268.856,259.291z"/>
	<path style="fill:#A86B38;" d="M241.169,305.87c0,6.44-6.835,6.8-13.275,6.8c-6.44,0-13.932-9.996-13.932-16.436
		s7.492-6.886,13.932-6.886C234.334,289.349,241.169,299.43,241.169,305.87z"/>
	<path style="fill:#A86B38;" d="M403.707,233.438c0,6.44-6.835,6.8-13.275,6.8s-13.932-9.996-13.932-16.436
		s7.492-6.886,13.932-6.886C396.872,216.916,403.707,226.998,403.707,233.438z"/>
	<path style="fill:#A86B38;" d="M357.347,277.326c0,6.44-6.835,6.8-13.275,6.8s-13.932-9.996-13.932-16.436
		c0-6.44,7.492-6.886,13.932-6.886C350.512,260.805,357.347,270.886,357.347,277.326z"/>
	<path style="fill:#A86B38;" d="M320.684,282.119c-4.413,4.69-9.638,0.268-14.328-4.146c-4.69-4.413-3.295-16.827,1.118-21.517
		c4.413-4.69,10.175,0.12,14.864,4.534C327.028,265.404,325.097,277.429,320.684,282.119z"/>
	<path style="fill:#A86B38;" d="M340.404,303.693c0,6.44-6.835,6.8-13.275,6.8s-13.932-9.996-13.932-16.436
		c0-6.44,7.492-6.886,13.932-6.886S340.404,297.253,340.404,303.693z"/>
	<path style="fill:#A86B38;" d="M295.582,288.885c0,6.44-6.835,6.8-13.275,6.8s-13.932-9.996-13.932-16.436
		c0-6.44,7.492-6.886,13.932-6.886S295.582,282.445,295.582,288.885z"/>
	<path style="fill:#A86B38;" d="M389.162,271.018c0,6.44-6.835,6.8-13.275,6.8s-13.932-9.996-13.932-16.436
		c0-6.44,7.492-6.886,13.932-6.886S389.162,264.578,389.162,271.018z"/>
	<path style="fill:#A86B38;" d="M433.4,288.013c-4.413,4.69-9.638,0.268-14.328-4.146c-4.69-4.413-3.295-16.827,1.118-21.517
		s10.175,0.12,14.864,4.534C439.744,271.298,437.813,283.323,433.4,288.013z"/>
	<path style="fill:#A86B38;" d="M410.163,270.831c-4.413,4.69-9.638,0.268-14.328-4.146c-4.69-4.413-3.295-16.827,1.118-21.517
		s10.175,0.12,14.864,4.534C416.508,254.117,414.577,266.142,410.163,270.831z"/>
	<path style="fill:#A86B38;" d="M404.029,339.678c-4.413,4.69-9.638,0.268-14.328-4.145s-3.295-16.827,1.119-21.517
		c4.413-4.69,10.175,0.12,14.864,4.534C410.373,322.962,408.442,334.987,404.029,339.678z"/>
	<path style="fill:#A86B38;" d="M406.52,299.112c0,6.44-6.835,6.8-13.275,6.8s-13.932-9.996-13.932-16.436s7.492-6.886,13.932-6.886
		S406.52,292.672,406.52,299.112z"/>
	<path style="fill:#A86B38;" d="M440.564,248.105c0,6.44-6.835,6.8-13.275,6.8c-6.44,0-13.932-9.996-13.932-16.436
		s7.492-6.886,13.932-6.886C433.729,231.584,440.564,241.665,440.564,248.105z"/>
	<path style="fill:#A86B38;" d="M424.817,318.328c-4.413,4.69-9.638,0.268-14.327-4.145c-4.69-4.413-3.295-16.827,1.118-21.516
		c4.413-4.69,10.175,0.12,14.864,4.534C431.162,301.613,429.231,313.639,424.817,318.328z"/>
	<path style="fill:#A86B38;" d="M381.426,310.772c0,6.44-6.835,6.8-13.275,6.8s-13.932-9.996-13.932-16.436
		s7.492-6.886,13.932-6.886C374.591,294.25,381.426,304.332,381.426,310.772z"/>
	<path style="fill:#A86B38;" d="M259.399,296.815c-4.413,4.69-9.638,0.268-14.328-4.145s-3.295-16.827,1.119-21.517
		c4.413-4.69,10.175,0.12,14.864,4.534C265.745,280.1,263.813,292.125,259.399,296.815z"/>
	<path style="fill:#A86B38;" d="M236.164,282.018c-4.413,4.69-9.638,0.268-14.328-4.146c-4.69-4.413-3.295-16.827,1.119-21.517
		c4.413-4.69,10.175,0.12,14.864,4.534C242.508,265.303,240.577,277.328,236.164,282.018z"/>
</g>
<g>
</g>
<g>
</g>
<g>
</g>
<g>
</g>
<g>
</g>
<g>
</g>
<g>
</g>
<g>
</g>
<g>
</g>
<g>
</g>
<g>
</g>
<g>
</g>
<g>
</g>
<g>
</g>
<g>
</g>
</svg>
