<?xml version="1.0" encoding="iso-8859-1"?>
<!-- Generator: Adobe Illustrator 19.0.0, SVG Export Plug-In . SVG Version: 6.00 Build 0)  -->
<svg version="1.1" id="Layer_1" xmlns="http://www.w3.org/2000/svg" xmlns:xlink="http://www.w3.org/1999/xlink" x="0px" y="0px"
	 viewBox="0 0 512.001 512.001" style="enable-background:new 0 0 512.001 512.001;" xml:space="preserve">
<path style="fill:#D1374D;" d="M229.343,295.71h-54.163c-67.381,0-122.2,54.819-122.2,122.2v40.044c0,4.662,3.778,8.44,8.44,8.44
	h54.164c67.38,0,122.199-54.819,122.199-122.199V304.15C237.783,299.489,234.004,295.71,229.343,295.71z"/>
<path id="SVGCleanerId_0" style="fill:#F94851;" d="M115.584,74.808H8.44c-4.662,0-8.44,3.778-8.44,8.44v107.144
	c0,67.38,54.819,122.199,122.199,122.199h107.144c4.662,0,8.44-3.778,8.44-8.44V197.007
	C237.783,129.627,182.964,74.808,115.584,74.808z"/>
<path style="fill:#7C1F31;" d="M229.343,295.71h-22.564v8.44v40.045c0,67.38-54.819,122.199-122.199,122.199h31.004
	c67.38,0,122.199-54.819,122.199-122.199V304.15C237.783,299.489,234.004,295.71,229.343,295.71z"/>
<g>
	<path id="SVGCleanerId_0_1_" style="fill:#F94851;" d="M115.584,74.808H8.44c-4.662,0-8.44,3.778-8.44,8.44v107.144
		c0,67.38,54.819,122.199,122.199,122.199h107.144c4.662,0,8.44-3.778,8.44-8.44V197.007
		C237.783,129.627,182.964,74.808,115.584,74.808z"/>
</g>
<g>
	<path style="fill:#D1374D;" d="M115.584,74.808H84.589c67.38,0,122.199,54.819,122.199,122.199l-0.009,115.584h22.564
		c4.662,0,8.44-3.778,8.44-8.44V197.007C237.783,129.627,182.964,74.808,115.584,74.808z"/>
	<path style="fill:#D1374D;" d="M336.819,295.71h-54.163c-4.662,0-8.44,3.778-8.44,8.44v40.045
		c0,67.38,54.819,122.199,122.199,122.199h54.164c4.661,0,8.44-3.778,8.44-8.44v-40.044
		C459.02,350.529,404.201,295.71,336.819,295.71z"/>
</g>
<path style="fill:#7C1F31;" d="M336.819,295.71h-30.88c67.381,0,122.2,54.819,122.2,122.2v40.044c0,4.662-3.778,8.44-8.44,8.44
	h30.88c4.661,0,8.44-3.778,8.44-8.44v-40.044C459.02,350.529,404.201,295.71,336.819,295.71z"/>
<path style="fill:#F94851;" d="M503.56,74.808H396.416c-67.38,0-122.199,54.819-122.199,122.199v107.144
	c0,4.662,3.778,8.44,8.44,8.44h107.144c67.38,0,122.199-54.819,122.199-122.199V83.247C512,78.585,508.222,74.808,503.56,74.808z"/>
<path style="fill:#D1374D;" d="M503.56,74.808h-30.879c4.661,0,8.44,3.778,8.44,8.44v107.144
	c0,67.38-54.819,122.199-122.199,122.199h30.88c67.38,0,122.199-54.819,122.199-122.199V83.247
	C512,78.585,508.222,74.808,503.56,74.808z"/>
<g>
	<path style="fill:#FF9F34;" d="M239.095,152.239c-4.385,0-8.088-3.39-8.409-7.832c-0.016-0.212-1.264-16.31-7.693-34.68
		c-5.702-16.293-16.807-37.867-37.333-48.129c-4.168-2.085-5.858-7.153-3.774-11.324c2.084-4.169,7.151-5.86,11.324-3.774
		c20.36,10.179,36.219,30.261,45.863,58.072c7.091,20.452,8.398,37.895,8.451,38.626c0.331,4.65-3.17,8.687-7.818,9.019
		C239.5,152.232,239.296,152.239,239.095,152.239z"/>
	<path style="fill:#FF9F34;" d="M272.905,152.235c-0.205,0-0.41-0.008-0.618-0.023c-4.645-0.336-8.14-4.367-7.809-9.013
		c0.053-0.731,1.359-18.174,8.451-38.626c9.644-27.812,25.503-47.894,45.863-58.072c4.171-2.082,9.24-0.396,11.324,3.774
		c2.085,4.169,0.395,9.239-3.774,11.324c-11.329,5.665-27.003,18.613-37.333,48.129c-6.44,18.4-7.681,34.521-7.694,34.681
		C280.988,148.846,277.285,152.235,272.905,152.235z"/>
</g>
<path style="fill:#FFDCAF;" d="M256,129.321c-19.352,0-35.096,15.744-35.096,35.095v163.645c0,42.353,9.494,85.016,27.453,123.376
	c1.387,2.966,4.368,4.86,7.643,4.86c3.275,0,6.255-1.895,7.643-4.86c17.961-38.361,27.454-81.023,27.454-123.376V164.417
	C291.097,145.064,275.352,129.321,256,129.321z"/>
<path style="fill:#EFBE89;" d="M256,129.321c-5.661,0-11.009,1.355-15.748,3.746c11.463,5.782,19.349,17.658,19.349,31.349v163.645
	c0,35.425-6.666,71.058-19.349,104.217c2.48,6.485,5.167,12.883,8.105,19.158c1.387,2.966,4.368,4.86,7.643,4.86
	c3.275,0,6.255-1.895,7.643-4.86c17.961-38.361,27.454-81.023,27.454-123.376V164.417C291.097,145.064,275.352,129.321,256,129.321z
	"/>
<g>
</g>
<g>
</g>
<g>
</g>
<g>
</g>
<g>
</g>
<g>
</g>
<g>
</g>
<g>
</g>
<g>
</g>
<g>
</g>
<g>
</g>
<g>
</g>
<g>
</g>
<g>
</g>
<g>
</g>
</svg>
