<?xml version="1.0" encoding="iso-8859-1"?>
<!-- Generator: Adobe Illustrator 19.0.0, SVG Export Plug-In . SVG Version: 6.00 Build 0)  -->
<svg version="1.1" id="Layer_1" xmlns="http://www.w3.org/2000/svg" xmlns:xlink="http://www.w3.org/1999/xlink" x="0px" y="0px"
	 viewBox="0 0 511.998 511.998" style="enable-background:new 0 0 511.998 511.998;" xml:space="preserve">
<g>
	<path style="fill:#7C6251;" d="M198.337,375.263c-0.709-2.622-2.64-4.743-5.187-5.691l-52.076-19.409
		c-4.333-1.614-9.151,0.565-10.803,4.88l-10.85,28.343c-4.257,0.826-10.434,2.471-16.589,5.679
		c-15.057,7.848-23.16,21.505-22.813,38.456c0.093,4.582,3.834,8.248,8.417,8.248h57.509c4.178,0,7.723-3.064,8.331-7.197
		c2.682-18.279,20.182-22.358,21.031-22.545c1.88-0.394,3.571-1.42,4.789-2.909l16.63-20.324
		C198.446,380.69,199.047,377.887,198.337,375.263z"/>
	<path style="fill:#7C6251;" d="M385.898,392.493l-4.709-15.614c-1.072-3.555-4.348-5.988-8.061-5.988h-53.219
		c-2.482,0-4.838,1.096-6.437,2.993c-1.599,1.897-2.28,4.404-1.86,6.851l3.142,18.31c-12.884,8.699-22.633,22.887-23.097,23.567
		c-1.756,2.579-1.941,5.917-0.483,8.675c1.459,2.758,4.323,4.482,7.443,4.482h58.039c4.527,0,8.244-3.58,8.414-8.104
		c0.8-21.385,11.893-24.072,13.636-24.362c2.556-0.141,4.719-1.431,6.203-3.527C386.41,397.656,386.648,394.978,385.898,392.493z"/>
</g>
<path style="fill:#A86B38;" d="M479.873,323.304h18.689c3.067,0,5.892-1.668,7.373-4.354c1.481-2.687,1.383-5.965-0.255-8.56
	l-17.896-28.338h15.795c3.244,0,6.199-1.863,7.598-4.791c1.399-2.928,0.99-6.398-1.05-8.92l-23.367-28.912l19.414-6.286
	c3.198-1.035,5.473-3.873,5.788-7.219c0.315-3.346-1.389-6.559-4.337-8.175l-51.505-28.215l19.03-11.895
	c2.781-1.737,4.298-4.93,3.893-8.182c-0.406-3.253-2.664-5.974-5.786-6.975l-48.848-15.65l7.279-18.389
	c1.017-2.571,0.708-5.477-0.828-7.777c-1.536-2.299-4.103-3.697-6.868-3.74l-61.773-0.964l2.768-18.947
	c0.402-2.755-0.583-5.53-2.632-7.415s-4.901-2.631-7.609-2.002l-75.773,17.661v-20.61c0-3.063-1.664-5.885-4.343-7.367
	c-2.68-1.482-5.954-1.392-8.548,0.235l-52.89,33.168V84.647c0-3.266-1.889-6.237-4.845-7.623c-2.959-1.385-6.449-0.936-8.96,1.152
	l-37.052,30.839l-4.121-13.935c-0.877-2.962-3.305-5.208-6.328-5.849c-3.025-0.643-6.154,0.424-8.157,2.778l-40.994,48.144
	l-12.673-17.517c-1.795-2.481-4.791-3.792-7.839-3.423c-3.042,0.37-5.641,2.364-6.789,5.205l-20.389,50.512l-19.65-15.026
	c-2.774-2.121-6.572-2.311-9.541-0.474c-2.97,1.837-4.499,5.317-3.843,8.746l13.148,68.595c0.434,2.263,1.776,4.249,3.713,5.495
	c1.936,1.246,4.299,1.643,6.538,1.102c81.199-19.669,102.836,26.953,103.694,28.894c0.676,1.588,1.822,2.931,3.286,3.846
	l90.569,56.614c1.001,0.625,2.123,1.034,3.291,1.198l179.495,25.232l76.354,13.633c0.495,0.089,0.991,0.131,1.482,0.131
	c2.969,0,5.768-1.575,7.289-4.211c1.773-3.07,1.431-6.923-0.853-9.635L479.873,323.304z"/>
<path style="fill:#8C4A14;" d="M457.398,364.808l44.701,7.982c0.495,0.089,0.991,0.131,1.482,0.131c2.969,0,5.768-1.575,7.289-4.211
	c1.773-3.07,1.431-6.923-0.853-9.635l-30.144-35.772h18.689c3.067,0,5.892-1.668,7.373-4.354c1.481-2.687,1.383-5.965-0.255-8.56
	l-17.896-28.338h15.795c3.244,0,6.199-1.863,7.598-4.791c1.399-2.928,0.99-6.398-1.05-8.92l-23.367-28.912l19.414-6.286
	c3.198-1.035,5.473-3.873,5.788-7.219c0.315-3.346-1.389-6.559-4.337-8.175l-51.505-28.215l19.03-11.895
	c2.781-1.737,4.298-4.93,3.893-8.182c-0.406-3.253-2.664-5.974-5.786-6.975l-48.848-15.65l7.279-18.389
	c1.017-2.571,0.708-5.477-0.828-7.777c-1.536-2.299-4.103-3.697-6.868-3.74l-23.284-0.364l-15.68,46.152l35.254,15.889
	l-18.868,8.938l41.212,34.757l-15.551,2.277l27.468,39.929h-18.868l16.372,32.275H421.77L457.398,364.808z"/>
<path style="fill:#B99C80;" d="M428.246,342.504L250.366,317.5l-87.056-54.418c-2.76-5.084-10.193-16.63-24.893-26.212
	c-17.019-11.092-47.657-21.807-96.972-9.861c-3.486,0.844-6.053,3.804-6.398,7.373l-3.056,31.65L12.23,277.426
	c-8.285,4.775-12.937,13.661-12.143,23.189c0.793,9.528,6.852,17.522,15.811,20.861l160.342,59.765l-7.485,9.149
	c-7.812,2.483-27.525,11.12-31.139,35.737c-0.355,2.42,0.36,4.875,1.96,6.726c1.599,1.851,3.925,2.915,6.371,2.915h64.588
	c3.097,0,5.945-1.701,7.413-4.427l23.483-43.612h125.444l0.586,1.944c-8.846,4.855-18.412,15.88-19.218,37.36
	c-0.085,2.287,0.763,4.509,2.351,6.156c1.586,1.648,3.775,2.579,6.063,2.579h66.983c4.504,0,8.209-3.543,8.41-8.042l3.435-76.508
	C435.68,346.881,432.545,343.108,428.246,342.504z"/>
<path style="fill:#A38166;" d="M428.246,342.504l-24.863-3.495l-6.209,96.759h26.464c4.504,0,8.209-3.543,8.41-8.042l3.435-76.508
	C435.68,346.881,432.545,343.108,428.246,342.504z"/>
<path style="fill:#2B2B2B;" d="M66.607,296.232c-5.498,0-9.972-4.464-9.972-9.952c0-5.487,4.472-9.952,9.972-9.952
	c5.498,0,9.972,4.464,9.972,9.952C76.578,291.768,72.105,296.232,66.607,296.232z"/>
<path style="fill:#B99C80;" d="M105.54,256.907c0,0,34.006-23.971,44.599-24.529c10.593-0.558,12.822,43.483-9.477,51.288"/>
<path style="fill:#A38166;" d="M165.372,240.756c-3.188-16.17-12.791-16.932-15.677-16.786
	c-11.748,0.619-38.185,18.427-49.006,26.055c-3.801,2.678-4.709,7.931-2.031,11.732c0,0,15.749,23.388,38.779,29.683l0.008-0.019
	c1.011,0.42,2.097,0.666,3.215,0.666c0.922,0,1.861-0.153,2.781-0.475C163.834,284.476,168.583,257.046,165.372,240.756z"/>
<g>
</g>
<g>
</g>
<g>
</g>
<g>
</g>
<g>
</g>
<g>
</g>
<g>
</g>
<g>
</g>
<g>
</g>
<g>
</g>
<g>
</g>
<g>
</g>
<g>
</g>
<g>
</g>
<g>
</g>
</svg>
