<?xml version="1.0" encoding="iso-8859-1"?>
<!-- Generator: Adobe Illustrator 19.0.0, SVG Export Plug-In . SVG Version: 6.00 Build 0)  -->
<svg version="1.1" id="Layer_1" xmlns="http://www.w3.org/2000/svg" xmlns:xlink="http://www.w3.org/1999/xlink" x="0px" y="0px"
	 viewBox="0 0 512 512" style="enable-background:new 0 0 512 512;" xml:space="preserve">
<path style="fill:#161618;" d="M323.805,496.157l-99.264-53.369c-2.09-1.125-4.558-1.315-6.797-0.523
	c-0.516,0.182-12.775,4.57-25.227,13.928c-17.24,12.953-26.657,29.244-27.234,47.111c-0.073,2.28,0.781,4.493,2.367,6.132
	c1.587,1.639,3.771,2.564,6.053,2.564h146.112c3.861,0,7.227-2.624,8.169-6.368C328.928,501.889,327.206,497.985,323.805,496.157z"
	/>
<path style="fill:#D9D9DB;" d="M317.99,511.789c0.602,0.134,1.213,0.211,1.825,0.211c1.434,0,2.87-0.366,4.157-1.097
	c2.518-1.429,4.127-4.051,4.258-6.946c0.02-0.434,1.936-43.918-0.765-90.658c-3.536-61.19-12.814-99.24-28.321-115.97l0.193-1.996
	c0.429-4.43-2.663-8.429-7.057-9.13c-4.403-0.704-8.578,2.136-9.549,6.481c-3.95,17.665-4.241,37.282-4.5,54.591
	c-0.163,10.846-0.315,21.091-1.392,28.67c-1.252,8.809-3.238,10.153-3.253,10.162c-0.011,0.004-1.57,0.449-6.024-1.779
	c-33.311-16.655-21.782-101.478-11.36-134.044c7.464-23.319-3.068-69.632-10.757-103.45c-2.879-12.661-5.365-23.598-5.678-28.305
	c-0.233-3.507,7.395-9.161,12.965-13.29c8.414-6.237,17.116-12.686,18.273-22.335c0.616-5.125-1.041-10.089-4.922-14.753
	c-13.693-16.454-30.367-4.876-40.328,2.039c-4.751,3.298-11.254,7.818-14.121,7.152c-3.581-0.824-8.21-2.883-13.388-5.954
	c-2.191-1.297-4.852-1.535-7.239-0.646c-1.61,0.6-2.977,1.67-3.945,3.044c-2.029,2.862-43.529,62.411-37.367,131.436
	c5.405,60.52,49.868,205.96,60.578,240.36L317.99,511.789z"/>
<path style="fill:#161618;" d="M175.538,24.478c-0.868-0.195-21.518-4.728-43.939-2.98C91.076,24.653,78.031,45.3,74.222,62.066
	c-0.612,2.692,0.135,5.513,1.997,7.55c1.607,1.758,3.868,2.74,6.216,2.74c0.374,0,0.749-0.025,1.125-0.075
	c0.61-0.082,61.387-8.132,87.736-0.275c2.546,0.762,5.308,0.272,7.441-1.319c2.132-1.59,3.39-4.095,3.39-6.755V32.7
	C182.127,28.754,179.39,25.337,175.538,24.478z"/>
<path style="fill:#FF9F34;" d="M78.286,50.639c-1.933,3.845-3.225,7.73-4.064,11.427c-0.612,2.692,0.135,5.513,1.997,7.55
	c1.607,1.758,3.868,2.74,6.216,2.74c0.374,0,0.749-0.025,1.125-0.075c0.61-0.082,61.387-8.132,87.736-0.275
	c2.546,0.762,5.308,0.272,7.441-1.319c2.132-1.59,3.39-4.095,3.39-6.755V49.734C159.591,45.105,105.143,47.045,78.286,50.639z"/>
<path style="fill:#2A2A2C;" d="M436.256,498.46l-29.182-38.16c11.989-110.762,3.577-204.274-25.01-277.996
	c-23.34-60.188-53.248-89.523-66.019-102.05c-1.666-1.633-3.547-3.48-4.085-4.15c-1.009-1.623-2.636-5.208-4.356-8.998
	C298.44,46.911,281.379,9.32,245.489,1.639c-43.307-9.27-76.402,23.742-77.789,25.151c-1.551,1.576-2.419,3.698-2.419,5.909v31.233
	c0,2.417,1.038,4.718,2.851,6.317c2.254,1.989,22.517,19.543,39.715,23.514c10.132,2.345,19.368-4.074,27.518-9.731
	c12.874-8.939,14.886-8.565,17.771-5.101c1.002,1.203,1.157,1.857,1.145,1.967c-0.294,2.443-7.635,7.885-11.578,10.808
	c-9.171,6.798-20.585,15.258-19.744,27.94c0.399,6.034,2.774,16.476,6.06,30.926c6.433,28.292,17.199,75.643,11.14,94.578
	c-7.899,24.684-29.191,129.715,19.871,154.248c8.785,4.392,16.289,4.765,22.306,1.109c12.062-7.331,12.348-26.479,12.742-52.979
	c0.11-7.374,0.227-15.28,0.659-23.222c6.061,15.248,12.142,42.203,14.903,89.837c2.66,45.89,0.78,88.625,0.762,89.051
	c-0.104,2.298,0.736,4.539,2.325,6.201s3.79,2.604,6.09,2.604h109.747c3.206,0,6.133-1.819,7.553-4.693
	C438.536,504.435,438.203,501.005,436.256,498.46z"/>
<path style="fill:#161618;" d="M407.075,460.3c11.989-110.762,3.577-204.274-25.01-277.996
	c-23.34-60.188-53.248-89.523-66.019-102.05c-1.666-1.633-3.547-3.48-4.085-4.15c-1.009-1.623-2.636-5.208-4.356-8.998
	C298.44,46.911,281.379,9.32,245.489,1.639c-17.273-3.698-32.912-0.662-45.572,4.405c5.623,1.121,11.896,2.248,18.87,3.376
	c0.822,0.143,1.643,0.279,2.473,0.456c39.288,8.409,54.29,60.061,61.204,70.871c6.913,10.811,125.833,91.403,93.401,381.987
	L412.948,512h16.615c3.206,0,6.133-1.819,7.553-4.693c1.421-2.873,1.087-6.302-0.86-8.849L407.075,460.3z"/>
<path d="M213.829,52.828c-5.356,0-9.713-4.349-9.713-9.696s4.357-9.696,9.713-9.696c5.356,0,9.711,4.349,9.711,9.696
	C223.542,48.479,219.185,52.828,213.829,52.828z"/>
<g>
</g>
<g>
</g>
<g>
</g>
<g>
</g>
<g>
</g>
<g>
</g>
<g>
</g>
<g>
</g>
<g>
</g>
<g>
</g>
<g>
</g>
<g>
</g>
<g>
</g>
<g>
</g>
<g>
</g>
</svg>
